HIERARCHY
ROOT Hips
{
	OFFSET -0.001795 -0.223333 0.028219
	CHANNELS 6 Xposition Yposition Zposition Zrotation Yrotation Xrotation 
	JOINT LeftUpLeg
	{
		OFFSET 0.069520 -0.091406 -0.006815
		CHANNELS 3 Zrotation Yrotation Xrotation
		JOINT LeftLeg
		{
			OFFSET 0.034277 -0.375199 -0.004496
			CHANNELS 3 Zrotation Yrotation Xrotation
			JOINT LeftFoot
			{
				OFFSET -0.013596 -0.397961 -0.043693
				CHANNELS 3 Zrotation Yrotation Xrotation
				JOINT LeftToe
				{
					OFFSET 0.026358 -0.055791 0.119288
					CHANNELS 3 Zrotation Yrotation Xrotation
					End Site
					{
						OFFSET 0.000000 0.000000 0.000000
					}
				}
			}
		}
	}
	JOINT RightUpLeg
	{
		OFFSET -0.067670 -0.090522 -0.004320
		CHANNELS 3 Zrotation Yrotation Xrotation
		JOINT RightLeg
		{
			OFFSET -0.038290 -0.382569 -0.008850
			CHANNELS 3 Zrotation Yrotation Xrotation
			JOINT RightFoot
			{
				OFFSET 0.015774 -0.398415 -0.042312
				CHANNELS 3 Zrotation Yrotation Xrotation
				JOINT RightToe
				{
					OFFSET -0.025372 -0.048144 0.123348
					CHANNELS 3 Zrotation Yrotation Xrotation
					End Site
					{
						OFFSET 0.000000 0.000000 0.000000
					}
				}
			}
		}
	}
	JOINT Spine
	{
		OFFSET -0.002533 0.108963 -0.026696
		CHANNELS 3 Zrotation Yrotation Xrotation
		JOINT Spine1
		{
			OFFSET 0.005487 0.135180 0.001092
			CHANNELS 3 Zrotation Yrotation Xrotation
			JOINT Spine2
			{
				OFFSET 0.001457 0.052922 0.025425
				CHANNELS 3 Zrotation Yrotation Xrotation
				JOINT Neck
				{
					OFFSET -0.002778 0.213870 -0.042857
					CHANNELS 3 Zrotation Yrotation Xrotation
					JOINT Head
					{
						OFFSET 0.005152 0.064970 0.051349
						CHANNELS 3 Zrotation Yrotation Xrotation
						End Site
						{
							OFFSET 0.000000 0.000000 0.000000
						}
					}
				}
				JOINT LeftShoulder
				{
					OFFSET 0.078845 0.121749 -0.034090
					CHANNELS 3 Zrotation Yrotation Xrotation
					JOINT LeftArm
					{
						OFFSET 0.090977 0.030469 -0.008868
						CHANNELS 3 Zrotation Yrotation Xrotation
						JOINT LeftForeArm
						{
							OFFSET 0.259612 -0.012772 -0.027456
							CHANNELS 3 Zrotation Yrotation Xrotation
							JOINT LeftHand
							{
								OFFSET 0.249234 0.008986 -0.001171
								CHANNELS 3 Zrotation Yrotation Xrotation
								End Site
								{
									OFFSET 0.000000 0.000000 0.000000
								}
							}
						}
					}
				}
				JOINT RightShoulder
				{
					OFFSET -0.081759 0.118833 -0.038615
					CHANNELS 3 Zrotation Yrotation Xrotation
					JOINT RightArm
					{
						OFFSET -0.096012 0.032551 -0.009143
						CHANNELS 3 Zrotation Yrotation Xrotation
						JOINT RightForeArm
						{
							OFFSET -0.253742 -0.013329 -0.021401
							CHANNELS 3 Zrotation Yrotation Xrotation
							JOINT RightHand
							{
								OFFSET -0.255298 0.007772 -0.005559
								CHANNELS 3 Zrotation Yrotation Xrotation
								End Site
								{
									OFFSET 0.000000 0.000000 0.000000
								}
							}
						}
					}
				}
			}
		}
	}
}
MOTION
Frames: 10
Frame Time: 0.050000
-0.079640 0.960438 -0.015554 -2.040666 -15.417278 9.717961 -0.707520 -0.361850 -3.553708 8.339198 -0.022152 -8.643308 -3.903448 -3.474172 13.763007 0.000000 0.000000 0.000000 -3.465057 2.061080 -19.959264 -2.411240 0.571109 5.245300 6.092937 2.672763 14.895322 0.000000 0.000000 0.000000 -0.209769 -0.261443 10.557997 6.625388 -2.767701 -2.382024 2.643703 -6.502523 1.444591 -3.176846 1.831115 -10.604772 0.000000 0.000000 0.000000 -9.591035 -5.807570 3.712669 -59.964697 -17.274596 3.209849 -37.078661 -68.346114 33.739693 0.000000 0.000000 0.000000 1.992656 6.392342 1.440108 47.813643 4.240522 -2.971184 123.232452 59.965850 85.197744 0.000000 0.000000 0.000000 
-0.087587 0.961026 -0.016280 -1.876476 -16.414500 9.673765 -0.382102 -0.353500 -3.527805 8.151286 -0.075870 -8.226140 -3.408821 -2.749646 13.995428 0.000000 0.000000 0.000000 -3.332981 2.129136 -20.165003 -2.425424 0.544382 4.904716 5.945005 2.188675 14.907195 0.000000 0.000000 0.000000 -0.615360 -0.196315 11.138789 6.671683 -2.773310 -2.488774 2.219319 -5.494098 1.859773 -2.999439 1.752294 -10.395778 0.000000 0.000000 0.000000 -9.983502 -5.187626 3.391490 -58.807466 -15.285211 1.856122 -44.886945 -70.726886 41.363322 0.000000 0.000000 0.000000 2.724692 8.479964 2.025166 48.559079 7.627575 -1.702440 123.179345 63.155657 89.731685 0.000000 0.000000 0.000000 
-0.096489 0.961744 -0.017139 -1.530946 -17.788169 9.763142 -0.526170 -0.398992 -3.975135 8.472474 -0.225870 -7.198274 -2.693969 -1.728129 14.257394 0.000000 0.000000 0.000000 -3.495189 2.226413 -20.708672 -1.438313 0.418688 4.799844 5.592527 0.413721 16.256794 0.000000 0.000000 0.000000 -0.972533 -0.126097 11.273500 6.060191 -2.520961 -2.317835 2.287851 -4.370840 1.365934 -3.419193 2.057127 -10.397327 0.000000 0.000000 0.000000 -9.830373 -6.362767 3.878992 -57.583307 -16.939412 2.573693 -37.293183 -72.243711 36.133963 0.000000 0.000000 0.000000 3.698313 11.927725 3.077393 48.555771 13.741225 0.818385 115.411840 69.532601 89.060587 0.000000 0.000000 0.000000 
-0.106133 0.962066 -0.018733 -1.543786 -17.970156 9.697387 0.240601 -0.376272 -3.998455 8.208537 -0.265941 -6.798112 -2.597082 -1.543411 14.459924 0.000000 0.000000 0.000000 -2.851886 2.269434 -20.546019 -1.381296 0.397135 4.594733 5.053227 -1.125177 17.096898 0.000000 0.000000 0.000000 -0.948686 -0.125089 11.760241 6.177316 -2.576768 -2.018287 2.036974 -3.874004 0.499063 -3.307867 2.086494 -9.057167 0.000000 0.000000 0.000000 -10.147899 -8.398525 4.829321 -55.437242 -20.908946 4.258722 -16.148404 -72.521228 19.645800 0.000000 0.000000 0.000000 4.686927 16.926970 4.807248 48.344389 21.700835 4.070996 83.564300 77.235757 66.573429 0.000000 0.000000 0.000000 
-0.116045 0.961893 -0.021325 -1.571835 -18.199502 10.007548 1.064437 -0.417966 -4.974688 7.311987 -0.347550 -5.694970 -1.435023 0.330375 14.675985 0.000000 0.000000 0.000000 -2.720121 2.338054 -20.890514 -0.905224 0.347636 4.649268 5.303105 -1.161196 17.880675 0.000000 0.000000 0.000000 -0.994745 -0.107057 12.328367 5.384017 -2.253539 -1.714457 2.574772 -3.230005 -0.102692 -3.933163 2.519635 -9.212546 0.000000 0.000000 0.000000 -8.593198 -12.382246 6.452584 -53.859383 -27.216899 7.282482 10.635519 -68.037946 -0.430937 0.000000 0.000000 0.000000 4.339789 21.254399 6.498407 49.036260 30.250811 7.549832 24.761060 75.198542 16.467026 0.000000 0.000000 0.000000 
-0.125110 0.961639 -0.024505 -1.796631 -17.782966 10.282749 1.931536 -0.426050 -5.729071 6.656187 -0.344388 -5.303155 -0.421588 2.154959 15.419968 0.000000 0.000000 0.000000 -1.830421 2.467697 -21.230047 -1.148298 0.428439 5.395401 4.982785 -1.438646 17.506526 0.000000 0.000000 0.000000 -1.034849 -0.102275 12.756121 5.009245 -2.112920 -0.882913 2.903567 -2.995711 -0.527968 -4.794305 3.102399 -9.444887 0.000000 0.000000 0.000000 -8.379109 -16.353556 8.261712 -50.120473 -33.754109 9.609529 23.899573 -59.319728 -8.271929 0.000000 0.000000 0.000000 5.146620 25.609270 8.241085 45.994082 37.121266 9.705634 -0.980027 64.787225 -1.808514 0.000000 0.000000 0.000000 
-0.132880 0.961419 -0.026954 -1.670427 -17.157992 10.690139 2.363177 -0.476917 -6.982239 5.721357 -0.325038 -4.770424 0.985867 4.644657 16.589496 0.000000 0.000000 0.000000 -1.632358 2.593122 -22.028863 -1.599973 0.539392 6.126017 5.486109 -0.273196 17.277500 0.000000 0.000000 0.000000 -0.939722 -0.117395 13.473285 4.644111 -1.965228 -0.279405 3.081693 -3.006934 -1.219100 -5.996113 3.895995 -9.630086 0.000000 0.000000 0.000000 -7.792547 -20.058620 9.882715 -47.515001 -39.611993 11.740007 28.439246 -50.042392 -9.193356 0.000000 0.000000 0.000000 4.595721 29.026013 9.662134 43.278907 42.039011 10.755754 -10.256668 55.229087 -5.645739 0.000000 0.000000 0.000000 
-0.139418 0.961307 -0.027664 -1.499345 -16.067265 10.724791 2.316878 -0.532850 -7.832972 5.327856 -0.302082 -4.603308 2.459430 7.312002 18.454741 0.000000 0.000000 0.000000 -1.338546 2.625737 -22.256804 -2.010652 0.663894 6.995123 5.146759 -0.172872 16.423866 0.000000 0.000000 0.000000 -0.677124 -0.173544 14.175895 4.142217 -1.767670 0.349942 3.446869 -3.428085 -1.383831 -6.918897 4.456228 -10.290225 0.000000 0.000000 0.000000 -8.148483 -23.334907 11.586724 -45.290343 -43.694095 12.854307 30.121913 -43.247831 -8.640253 0.000000 0.000000 0.000000 4.286020 30.555220 10.290768 40.220085 43.804238 10.337918 -13.238434 49.898345 -6.043473 0.000000 0.000000 0.000000 
-0.145769 0.961196 -0.026451 -1.387009 -15.276206 11.018947 2.187811 -0.588128 -8.576853 5.344885 -0.330007 -4.218260 3.527393 9.090942 19.144453 0.000000 0.000000 0.000000 -1.397173 2.646812 -22.616114 -2.219287 0.722765 7.356877 5.640793 0.851219 16.505089 0.000000 0.000000 0.000000 -0.395297 -0.234910 14.481845 4.472580 -1.929741 1.000538 2.924487 -3.661648 -1.750759 -7.291698 4.735854 -10.014161 0.000000 0.000000 0.000000 -9.111454 -24.510467 12.411946 -46.144196 -45.668054 14.060672 29.987487 -40.942600 -8.171857 0.000000 0.000000 0.000000 4.010555 31.014673 10.515008 40.079320 43.326078 10.173447 -14.002570 48.565284 -6.094234 0.000000 0.000000 0.000000 
-0.152555 0.961917 -0.023996 -1.200800 -14.193340 11.206576 2.168357 -0.613781 -8.843456 5.324983 -0.299203 -4.458270 3.967565 10.001540 20.136656 0.000000 0.000000 0.000000 -1.469250 2.552677 -22.290624 -2.205279 0.704573 7.208360 5.621923 1.311458 16.023023 0.000000 0.000000 0.000000 -0.507562 -0.235896 14.462084 4.581454 -1.981865 0.560649 2.744679 -4.051619 -1.514897 -7.726367 5.076297 -9.506366 0.000000 0.000000 0.000000 -10.491739 -25.872475 13.524126 -48.082483 -45.533849 14.595741 29.410280 -40.060917 -7.810125 0.000000 0.000000 0.000000 4.560198 30.333367 10.315064 42.077841 40.342112 9.845769 -13.536677 50.770897 -6.288710 0.000000 0.000000 0.000000 
